<?xml version="1.0" encoding="utf-8"?>
<!-- Generator: Adobe Illustrator 19.0.1, SVG Export Plug-In . SVG Version: 6.00 Build 0)  -->
<svg version="1.1" id="Layer_1" xmlns="http://www.w3.org/2000/svg" xmlns:xlink="http://www.w3.org/1999/xlink" x="0px" y="0px"
	 viewBox="0 0 286.3789 496.2222" style="enable-background:new 0 0 286.3789 496.2222;" xml:space="preserve">
<style type="text/css">
	.st0{fill:#DEDDDD;}
	.st1{fill:#333031;}
</style>
<g id="XMLID_16_">
	<polygon class="st0" points="276.0919,109.25 276.0919,486.2222 10.99,486.2222 10.99,496.2222 286.3789,496.2222 286.3789,109.25 
			"/>
</g>
<path id="XMLID_36_" class="st1" d="M238.5283,98.5v-3.625h-6V0h-1.5v94.875h-6V98.5H51.8613v-3.625h-6V0h-1.5v94.875h-6V98.5H0
	v388.4727h276.8887V98.5H238.5283z M226.5283,96.375h10.5v5.75h-10.5V96.375z M39.8613,96.375h10.5v5.75h-10.5V96.375z
	 M275.3887,485.4727H1.5V100h36.8613v3.625h13.5V100h173.167v3.625h13.5V100h36.8604V485.4727z"/>
</svg>
