<?xml version="1.0" encoding="utf-8"?>
<!-- Generator: Adobe Illustrator 17.0.0, SVG Export Plug-In . SVG Version: 6.00 Build 0)  -->
<!DOCTYPE svg PUBLIC "-//W3C//DTD SVG 1.1//EN" "http://www.w3.org/Graphics/SVG/1.1/DTD/svg11.dtd">
<svg version="1.1" id="Слой_1" xmlns="http://www.w3.org/2000/svg" xmlns:xlink="http://www.w3.org/1999/xlink" x="0px" y="0px"
	 width="218.635px" height="35.401px" viewBox="0 0 218.635 35.401" enable-background="new 0 0 218.635 35.401"
	 xml:space="preserve">
<g>
	<defs>
		<rect id="SVGID_1_" width="218.635" height="35.401"/>
	</defs>
	<clipPath id="SVGID_2_">
		<use xlink:href="#SVGID_1_"  overflow="visible"/>
	</clipPath>
	<path clip-path="url(#SVGID_2_)" d="M0,35.401h218.635V0H0V35.401z M25.553,25.8c-1.372,1.539-2.995,1.98-4.615,1.98
		c-1.183,0-3.081-0.221-4.648-1.788c-1.786-1.787-2.501-4.92-2.501-7.888c0-2.859,0.662-6.295,2.666-8.165
		c1.567-1.456,3.492-1.622,4.536-1.622c1.375,0,2.942,0.33,4.234,1.539c1.319,1.211,2.117,3.217,2.17,5.773l-3.764,0.303
		c-0.056-1.155-0.165-2.557-0.964-3.437c-0.493-0.522-1.126-0.769-1.759-0.769c-0.686,0-1.262,0.358-1.62,0.797
		c-0.964,1.155-1.1,4.014-1.1,5.773c0,3.189,0.467,4.453,0.852,5.029c0.467,0.716,1.126,1.045,1.951,1.045
		c0.742,0,1.292-0.246,1.786-0.962c0.523-0.714,0.771-1.65,0.854-2.803l3.847,0.247C27.369,22.364,26.845,24.342,25.553,25.8
		 M34.071,27.476h-4.122V8.62h4.122V27.476z M50.18,27.476h-3.684l-5.774-13.633v13.633h-3.187V8.62h4.562l4.893,11.71V8.62h3.19
		V27.476z M64.56,11.864h-7.368v4.37h5.718v3.243h-5.718v4.756h7.368v3.243H53.07V8.62h11.49V11.864z M84.21,27.476h-3.849V11.698
		l-3.848,15.778h-3.024L69.97,11.698v15.778h-3.353V8.62h6.047l2.695,11.654L78.382,8.62h5.828V27.476z M96.41,27.476l-0.934-3.902
		h-5.305l-0.907,3.902h-3.821L91.076,8.62h4.178l5.39,18.856H96.41z M116.301,15.783h-3.779v11.693H109.7V15.783h-3.779V12.96h3.779
		V8.62h2.822v4.34h3.779V15.783z M138.066,27.476h-4.124v-7.751h-4.536v7.751h-4.122V8.62h4.122v7.587h4.536V8.62h4.124V27.476z
		 M147.876,27.779c-1.265,0-3.08-0.275-4.592-1.842c-2.034-2.089-2.282-5.277-2.282-7.889c0-2.611,0.248-5.8,2.282-7.889
		c1.512-1.567,3.327-1.842,4.592-1.842c2.226,0,3.655,0.88,4.589,1.842c2.117,2.226,2.282,6.212,2.282,7.889
		C154.747,24.535,152.273,27.779,147.876,27.779 M167.882,27.476h-10.197V8.62h4.124v15.338h6.073V27.476z M174.262,27.476h-4.122
		V8.62h4.122V27.476z M188.17,25.8c-1.372,1.539-2.995,1.98-4.615,1.98c-1.183,0-3.081-0.221-4.648-1.788
		c-1.786-1.787-2.502-4.92-2.502-7.888c0-2.859,0.663-6.295,2.667-8.165c1.567-1.456,3.492-1.622,4.536-1.622
		c1.375,0,2.942,0.33,4.234,1.539c1.319,1.211,2.117,3.217,2.17,5.773l-3.764,0.303c-0.056-1.155-0.165-2.557-0.964-3.437
		c-0.493-0.522-1.126-0.769-1.759-0.769c-0.686,0-1.262,0.358-1.62,0.797c-0.964,1.155-1.1,4.014-1.1,5.773
		c0,3.189,0.467,4.453,0.852,5.029c0.467,0.716,1.126,1.045,1.951,1.045c0.742,0,1.292-0.246,1.786-0.962
		c0.523-0.714,0.771-1.65,0.854-2.803l3.847,0.247C189.986,22.364,189.462,24.342,188.17,25.8 M202.84,26.239
		c-0.878,0.742-2.389,1.54-4.672,1.54c-2.336,0-3.903-0.879-4.92-2.007c-0.964-1.044-1.431-2.391-1.623-3.161l3.601-1.072
		c0.083,0.385,0.331,1.209,0.769,1.759c0.689,0.88,1.597,1.072,2.339,1.072c0.494,0,1.07-0.028,1.593-0.44
		c0.358-0.275,0.743-0.742,0.743-1.511c0-0.605-0.219-1.1-0.66-1.485c-0.496-0.44-1.182-0.66-1.951-0.935
		c-2.173-0.769-3.217-1.374-3.903-1.952c-1.597-1.346-1.759-2.913-1.759-3.903c0-2.034,0.742-3.381,1.703-4.315
		c1.182-1.128,2.64-1.512,4.26-1.512c2.035,0,3.436,0.604,4.261,1.292c0.961,0.797,1.594,1.979,1.842,3.106l-3.409,1.32
		c-0.083-0.275-0.358-1.045-0.825-1.54c-0.577-0.632-1.263-0.769-1.869-0.769c-0.411,0-0.768,0.055-1.236,0.358
		c-0.496,0.329-0.715,0.742-0.715,1.401c0,0.714,0.358,1.044,0.852,1.374c0.715,0.495,1.511,0.77,2.391,1.099
		c1.183,0.441,2.392,0.908,3.327,1.705c1.126,0.962,1.868,2.281,1.868,4.095C204.847,23.711,203.969,25.277,202.84,26.239"/>
</g>
</svg>
